<?xml version="1.0" encoding="UTF-8"?>
<svg width="359px" height="340px" viewBox="0 0 359 340" version="1.1" xmlns="http://www.w3.org/2000/svg" xmlns:xlink="http://www.w3.org/1999/xlink">
    <!-- Generator: Sketch 43.2 (39069) - http://www.bohemiancoding.com/sketch -->
    <title>pizza tuesday badge</title>
    <desc>Created with Sketch.</desc>
    <defs></defs>
    <g id="Symbols" stroke="none" stroke-width="1" fill="none" fill-rule="evenodd">
        <g id="pizza-tuesday-badge">
            <g id="Group-2" transform="translate(4.000000, 10.000000)">
                <g id="Group" transform="translate(173.621070, 151.153211) rotate(-1.000000) translate(-173.621070, -151.153211) translate(23.121070, 54.153211)">
                    <path d="M41.9909956,15.010983 L61.2309956,12.410983 L52.0009956,55.830983 C65.1309956,54.790983 74.7509956,37.760983 74.7509956,23.850983 C74.7509956,14.230983 70.0709956,6.17098301 58.6309956,6.17098301 C37.5709956,6.17098301 24.9609956,18.000983 24.9609956,37.760983 C24.9609956,44.390983 26.6509956,45.430983 26.7809956,46.600983 C17.8109956,46.600983 12.8709956,43.350983 12.8709956,33.990983 C12.8709956,16.700983 36.7909956,0.190983006 58.5009956,0.190983006 C79.8209956,0.190983006 89.1809956,12.410983 89.1809956,25.800983 C89.1809956,42.310983 75.0109956,60.640983 51.6109956,60.640983 L50.9609956,60.640983 L43.0309956,97.690983 L24.3109956,97.690983 L41.9909956,15.010983 Z M98.0209956,15.400983 C98.0209956,21.120983 102.570996,25.670983 108.290996,25.670983 C114.010996,25.670983 118.690996,21.120983 118.690996,15.400983 C118.690996,9.68098301 114.010996,5.00098301 108.290996,5.00098301 C102.570996,5.00098301 98.0209956,9.68098301 98.0209956,15.400983 Z M95.4209956,32.690983 L114.140996,32.690983 L104.780996,76.890983 C104.390996,78.580983 104.260996,79.880983 104.260996,81.050983 C104.260996,84.690983 105.950996,85.860983 109.590996,85.860983 C111.930996,85.860983 112.970996,85.470983 113.750996,85.080983 C113.100996,94.310983 106.470996,98.470983 99.4509956,98.470983 C91.6509956,98.470983 85.5409956,93.790983 85.5409956,82.870983 C85.5409956,80.400983 85.9309956,77.540983 86.5809956,74.420983 L95.4209956,32.690983 Z M153.530996,85.860983 C151.840996,85.730983 151.060996,84.560983 151.060996,83.130983 C151.060996,80.790983 153.530996,77.540983 158.340996,77.540983 C162.240996,77.540983 164.060996,80.270983 164.060996,83.780983 C164.060996,89.760983 158.210996,97.690983 148.200996,97.690983 L113.750996,97.690983 L146.900996,39.710983 L139.620996,39.710983 C135.590996,39.710983 132.470996,39.970983 132.470996,41.790983 C132.470996,42.440983 133.900996,41.660983 133.900996,44.650983 C133.900996,49.460983 130.260996,51.540983 126.880996,51.540983 C123.890996,51.540983 120.900996,49.590983 120.900996,45.820983 C120.900996,40.490983 126.750996,32.690983 135.980996,32.690983 L169.390996,32.690983 L137.540996,87.680983 C139.750996,87.810983 143.910996,88.460983 147.420996,88.460983 C150.540996,88.460983 153.140996,87.940983 153.530996,85.860983 Z M209.170996,85.860983 C207.480996,85.730983 206.700996,84.560983 206.700996,83.130983 C206.700996,80.790983 209.170996,77.540983 213.980996,77.540983 C217.880996,77.540983 219.700996,80.270983 219.700996,83.780983 C219.700996,89.760983 213.850996,97.690983 203.840996,97.690983 L169.390996,97.690983 L202.540996,39.710983 L195.260996,39.710983 C191.230996,39.710983 188.110996,39.970983 188.110996,41.790983 C188.110996,42.440983 189.540996,41.660983 189.540996,44.650983 C189.540996,49.460983 185.900996,51.540983 182.520996,51.540983 C179.530996,51.540983 176.540996,49.590983 176.540996,45.820983 C176.540996,40.490983 182.390996,32.690983 191.620996,32.690983 L225.030996,32.690983 L193.180996,87.680983 C195.390996,87.810983 199.550996,88.460983 203.060996,88.460983 C206.180996,88.460983 208.780996,87.940983 209.170996,85.860983 Z M268.710996,32.690983 L287.430996,32.690983 L278.070996,76.890983 C277.680996,78.580983 277.550996,79.880983 277.550996,81.050983 C277.550996,84.690983 279.240996,85.860983 282.880996,85.860983 C284.050996,85.860983 284.830996,85.730983 285.740996,85.340983 C282.230996,94.440983 279.760996,98.470983 272.740996,98.470983 C265.720996,98.470983 261.040996,93.920983 260.000996,86.380983 C256.100996,92.360983 249.860996,98.470983 240.630996,98.470983 C231.790996,98.470983 223.340996,93.010983 223.340996,77.540983 C223.340996,59.990983 234.130996,32.040983 256.750996,32.040983 C264.160996,32.040983 267.280996,34.900983 267.280996,38.670983 L267.280996,39.580983 L268.710996,32.690983 Z M260.780996,40.100983 C249.730996,40.100983 242.580996,63.500983 242.580996,75.720983 C242.580996,85.730983 246.740996,85.860983 249.080996,85.860983 C252.850996,85.860983 258.310996,81.960983 259.870996,74.420983 L266.110996,45.040983 C266.110996,43.480983 264.940996,40.100983 260.780996,40.100983 Z" id="Pizza" fill="#2f2f2f"></path>
                    <path d="M54.8109885,112.981243 C50.3029885,112.981243 45.5189885,112.061243 40.5509885,110.957243 L27.8549885,170.021243 L14.6069885,170.021243 L27.6709885,109.117243 L26.5669885,109.117243 C16.8149885,109.117243 9.27098854,112.889243 9.27098854,127.701243 C9.27098854,132.393243 10.4669885,133.129243 10.5589885,133.957243 C4.21098854,133.957243 0.714988539,131.657243 0.714988539,125.033243 C0.714988539,112.797243 9.36298854,101.113243 32.0869885,101.113243 C43.2189885,101.113243 46.6229885,103.229243 55.6389885,103.229243 C59.8709885,103.229243 63.8269885,102.309243 66.3109885,101.297243 C66.1269885,109.301243 62.1709885,112.981243 54.8109885,112.981243 Z" id="Path" fill="#2f2f2f"></path>
                    <path d="M73.3949885,124.021243 L86.6429885,124.021243 L80.0189885,155.301243 C79.7429885,156.497243 79.6509885,157.417243 79.6509885,158.245243 C79.6509885,160.821243 80.8469885,161.649243 83.4229885,161.649243 C87.0109885,161.649243 89.4949885,158.153243 90.8749885,153.553243 L94.7389885,153.553243 C89.4949885,168.549243 81.2149885,170.573243 76.2469885,170.573243 C71.0029885,170.573243 67.6909885,167.537243 67.1389885,161.833243 C62.5389885,169.377243 57.3869885,170.573243 53.5229885,170.573243 C48.0029885,170.573243 43.6789885,167.261243 43.6789885,159.533243 C43.6789885,157.785243 43.9549885,155.761243 44.4149885,153.553243 L50.6709885,124.021243 L63.9189885,124.021243 L57.2949885,155.301243 C57.1109885,156.221243 57.0189885,157.049243 57.0189885,157.877243 C57.0189885,159.993243 57.7549885,161.649243 59.7789885,161.649243 C63.3669885,161.649243 65.7589885,158.153243 67.1389885,153.553243 L73.3949885,124.021243 Z" id="Path" fill="#2f2f2f"></path>
                    <path d="M103.294989,155.117243 C103.294989,161.373243 105.502989,162.845243 109.918989,162.845243 C117.186989,162.845243 121.602989,158.797243 126.202989,153.553243 L129.330989,153.553243 C124.086989,162.017243 116.266989,170.573243 104.030989,170.573243 C95.3829885,170.573243 89.6789885,166.341243 89.6789885,155.945243 C89.6789885,145.365243 95.6589885,123.193243 114.518989,123.193243 C122.706989,123.193243 124.638989,127.425243 124.638989,132.025243 C124.638989,142.605243 114.518989,150.793243 103.478989,151.437243 C103.386989,152.725243 103.294989,154.013243 103.294989,155.117243 Z" id="Path" fill="#2f2f2f"></path>
                    <path d="M117.554989,131.841243 C117.554989,129.541243 117.002989,128.069243 115.254989,128.069243 C110.562989,128.069243 106.054989,137.913243 104.214989,147.021243 C111.298989,146.561243 117.554989,139.477243 117.554989,131.841243 Z" id="Path" fill="#f7f7f7"></path>
                    <path d="M161.346989,153.553243 L165.210989,153.553243 C160.426989,159.073243 155.366989,162.569243 151.134989,165.053243 C147.270989,169.101243 141.382989,170.573243 136.690989,170.573243 C127.306989,170.573243 123.258989,164.409243 123.258989,158.797243 C123.258989,154.565243 125.650989,151.437243 128.134989,150.241243 C133.286989,141.133243 136.598989,132.025243 139.450989,123.009243 L153.066989,121.169243 C154.170989,144.997243 155.090989,148.585243 155.090989,154.657243 C155.090989,155.945243 154.998989,157.049243 154.722989,158.153243 C157.206989,156.681243 159.598989,155.025243 161.346989,153.553243 Z" id="Path" fill="#2f2f2f"></path>
                    <path d="M134.666989,153.553243 C134.666989,155.761243 133.010989,158.061243 130.618989,158.061243 C129.698989,158.061243 128.594989,157.785243 128.134989,156.865243 C128.134989,161.189243 129.698989,163.305243 133.746989,163.305243 C137.794989,163.305243 141.750989,161.189243 141.750989,154.749243 C141.750989,149.965243 140.922989,147.113243 140.002989,132.945243 C138.162989,138.925243 135.586989,144.445243 132.550989,150.333243 C133.746989,150.885243 134.666989,151.989243 134.666989,153.553243 Z" id="Path" fill="#f7f7f7"></path>
                    <path d="M195.754989,107.461243 L209.370989,105.621243 L198.790989,155.301243 C198.514989,156.497243 198.422989,157.417243 198.422989,158.245243 C198.422989,160.821243 199.618989,161.649243 202.194989,161.649243 C205.782989,161.649243 208.266989,158.153243 209.646989,153.553243 L213.510989,153.553243 C208.266989,168.549243 199.986989,170.021243 195.018989,170.021243 C190.050989,170.021243 186.738989,167.261243 186.002989,162.109243 C183.242989,166.341243 178.918989,170.573243 172.386989,170.573243 C166.130989,170.573243 160.150989,166.709243 160.150989,155.761243 C160.150989,143.341243 167.786989,123.561243 183.794989,123.561243 C189.038989,123.561243 191.246989,125.585243 191.246989,128.253243 L191.246989,128.621243 L195.754989,107.461243 Z" id="Path" fill="#2f2f2f"></path>
                    <path d="M185.910989,154.013243 L185.910989,153.553243 L190.418989,132.485243 C190.234989,131.381243 189.406989,129.265243 186.646989,129.265243 C178.826989,129.265243 173.766989,145.825243 173.766989,154.473243 C173.766989,161.557243 176.710989,161.649243 178.366989,161.649243 C180.942989,161.649243 184.714989,159.073243 185.910989,154.013243 Z" id="Path" fill="#f7f7f7"></path>
                    <path d="M240.558989,124.021243 L253.806989,124.021243 L247.182989,155.301243 C246.906989,156.497243 246.814989,157.417243 246.814989,158.245243 C246.814989,160.821243 248.010989,162.201243 250.586989,162.201243 C254.174989,162.201243 256.658989,158.153243 258.038989,153.553243 L261.902989,153.553243 C256.658989,168.549243 248.378989,170.573243 243.410989,170.573243 C238.258989,170.573243 234.946989,167.629243 234.394989,162.109243 C231.542989,166.341243 227.218989,170.573243 220.686989,170.573243 C214.430989,170.573243 208.450989,166.709243 208.450989,155.761243 C208.450989,143.341243 216.086989,123.561243 232.094989,123.561243 C237.338989,123.561243 239.546989,125.585243 239.546989,128.253243 L239.546989,128.897243 L240.558989,124.021243 Z" id="Path" fill="#2f2f2f"></path>
                    <path d="M234.946989,129.265243 C227.126989,129.265243 222.066989,145.825243 222.066989,154.473243 C222.066989,161.557243 225.010989,161.649243 226.666989,161.649243 C229.334989,161.649243 233.198989,158.889243 234.302989,153.553243 L238.718989,132.761243 C238.718989,131.657243 237.890989,129.265243 234.946989,129.265243 Z" id="Path" fill="#f7f7f7"></path>
                    <path d="M264.294989,124.021243 L277.542989,124.021243 L270.918989,155.301243 C270.734989,156.037243 270.642989,156.865243 270.642989,157.601243 C270.642989,159.717243 271.286989,161.649243 273.402989,161.649243 C276.990989,161.649243 279.382989,158.153243 280.762989,153.553243 L287.018989,124.021243 L300.358989,124.021243 L289.134989,177.381243 C286.374989,190.537243 278.462989,193.021243 272.390989,193.021243 C266.778989,193.021243 261.534989,189.065243 261.534989,183.085243 C261.534989,174.529243 268.710989,171.861243 277.450989,169.285243 L278.370989,165.237243 C274.414989,169.745243 270.274989,170.573243 267.146989,170.573243 C261.626989,170.573243 257.302989,167.261243 257.302989,159.533243 C257.302989,157.785243 257.578989,155.761243 258.038989,153.553243 L264.294989,124.021243 Z" id="Path" fill="#2f2f2f"></path>
                    <path d="M266.594989,181.797243 C266.594989,183.085243 268.250989,184.833243 270.274989,184.833243 C272.114989,184.833243 274.506989,183.085243 275.702989,177.657243 L276.806989,172.229243 C271.010989,174.161243 266.594989,176.829243 266.594989,181.797243 Z" id="Path" fill="#f7f7f7"></path>
                </g>
            </g>
        </g>
    </g>
</svg>
